<svg id="visual" viewBox="0 0 900 600" width="900" height="600" xmlns="http://www.w3.org/2000/svg" xmlns:xlink="http://www.w3.org/1999/xlink" version="1.1"><g transform="translate(441.94540548655567 251.0385765223896)"><path d="M87.3 -145.1C117.9 -133.5 150.7 -119.7 178.4 -95.2C206.1 -70.7 228.5 -35.3 234.2 3.2C239.8 41.8 228.6 83.7 211.7 127C194.9 170.3 172.5 215 136.2 239.1C100 263.2 50 266.6 13.4 243.4C-23.2 220.1 -46.3 170.3 -82.4 146.1C-118.5 121.9 -167.5 123.5 -194.8 103.4C-222 83.3 -227.5 41.7 -207.7 11.5C-187.8 -18.8 -142.6 -37.5 -113.1 -53.7C-83.6 -69.8 -69.8 -83.4 -53.6 -103.4C-37.3 -123.3 -18.7 -149.7 4.8 -158C28.3 -166.4 56.7 -156.8 87.3 -145.1" fill="#f39f57"></path></g></svg>